<svg width="704" height="164" viewBox="0 0 704 164" fill="none" xmlns="http://www.w3.org/2000/svg">
<path d="M13 65V12.5L76.5 44L13 85.5M13 65L76.5 113L13 152V85.5M13 65V85.5M120 6V157.5M173 6V60M173 157.5V94M173 60C199 63 231 44 231 6M173 60V94M173 94C215 98 266.5 65 264.5 6M308 157.5V14.5L371 44L337 80.5L371 154.5M403.5 154.5L471.5 65L436 11.5L403.5 65L471.5 154.5M575.5 157.5V65L513 95V6M651.5 157.5V14.5M651.5 14.5L695 51M651.5 14.5L607.5 51" stroke="black" stroke-width="26" stroke-linejoin="bevel"/>
</svg>
