<svg width="524" height="513" viewBox="0 0 524 513" fill="none" xmlns="http://www.w3.org/2000/svg">
<path opacity="0.61121" d="M279.965 26.7839C175.238 30.9833 130.957 91.1681 111.201 129.254C102.071 146.859 97.6098 171.555 100.02 197.596C101.871 217.608 107.781 238.415 118.747 257.411C148.247 308.506 191.915 320.994 213.98 325.48C195.322 313.08 181.563 294.491 176.01 272.854C160.361 254.954 150.883 224.956 149.973 208.046C147.427 160.761 168.554 132.618 180.497 118.316C195.395 100.476 215.807 83.6669 252.633 71.6809C268.594 66.4848 287.639 62.195 310.656 59.1196C328.487 56.7371 395.359 61.1954 450.457 98.8614C496.839 130.569 523.606 185.628 523.606 185.628C523.606 185.628 498.378 116.712 424.575 70.1899C359.593 29.2273 312.072 25.4951 279.965 26.7839Z" fill="#FF46FB" stroke="black" stroke-opacity="0.22344" stroke-width="0.504983"/>
<path opacity="0.61121" d="M325.622 105.372C273.392 106.548 248.043 127.598 225.109 147.547C218.697 153.124 207.038 169.169 200.458 188.344C172.875 217.547 170.53 246.261 176.009 272.85C160.359 254.95 150.881 224.952 149.971 208.042C147.426 160.757 168.553 132.614 180.496 118.313C195.394 100.473 215.633 83.1208 252.632 71.6772C289.684 60.215 326.136 66.4863 344.701 69.9337C362.388 73.2184 420.639 82.2448 470.503 143.563C528.624 215.034 515.018 293.806 515.018 293.806C515.018 293.806 519.897 233.035 468.008 171.527C415.08 108.787 357.752 104.649 325.626 105.374L325.622 105.372Z" fill="#CA41FC" stroke="black" stroke-opacity="0.22344" stroke-width="0.504983"/>
<path opacity="0.61121" d="M325.621 105.372C273.392 106.548 248.043 127.597 225.109 147.547C218.697 153.124 207.038 169.168 200.458 188.344C209.362 180.176 219.311 172.708 236.08 166.207C265.871 151.096 291.48 145.918 328.452 149.519C382.76 154.81 414.364 183.704 431.769 200.195C449.121 216.64 482.932 257.78 478.639 328.314C477.334 349.757 470.474 380.743 437.204 430.41C406.489 476.263 322.204 512.256 322.204 512.256C322.204 512.256 416.099 492.741 478.457 383.99C523.014 306.279 507.39 218.201 468.006 171.52C415.077 108.78 357.749 104.641 325.623 105.367L325.621 105.372Z" fill="#8B48FE" stroke="black" stroke-opacity="0.22344" stroke-width="0.504983"/>
<path opacity="0.61121" d="M382.768 212.291C369.963 202.703 357.362 193.357 332.409 184.628C295.192 152.95 254.914 160.5 236.081 166.204C265.871 151.093 291.481 145.915 328.452 149.516C382.76 154.806 414.365 183.701 431.769 200.192C449.122 216.637 482.933 257.777 478.639 328.311C477.335 349.754 470.474 380.74 437.204 430.407C427.055 445.558 411.057 459.633 394.182 471.687C394.182 471.687 417.265 451.48 435.035 402.884C443.133 380.738 453.607 349.718 438.532 290.53C433.469 270.651 408.49 231.543 382.769 212.283L382.768 212.291Z" fill="#00C0FF" stroke="black" stroke-opacity="0.22344" stroke-width="0.504983"/>
<path opacity="0.61121" d="M382.768 212.291C369.963 202.703 357.362 193.357 332.409 184.628C343.451 194.572 355.143 208.196 360.607 229.423C378.988 253.838 388.12 269.633 393.629 285.606C399.587 302.876 404.38 326.666 402.856 350.595C401.085 378.401 396.561 410.731 376.839 436.877C363.902 454.029 353.454 468.755 321.416 485.437C308.609 492.106 270.078 509.18 215.566 502.353C170.291 496.682 130.837 473.941 130.837 473.941C130.837 473.941 182.151 508.56 244.891 508.947C283.59 509.186 299.581 502.632 320.611 494.889C382.757 472.003 408.02 439.395 420.012 415.859C429.634 396.977 453.606 349.725 438.531 290.538C433.468 270.658 408.488 231.551 382.768 212.291Z" fill="#00D267" stroke="black" stroke-opacity="0.22344" stroke-width="0.504983"/>
<path opacity="0.61121" d="M354.157 362.036C360.813 340.524 363.905 309.353 356.389 286.112C367.84 259.428 362.699 235.436 360.626 229.442C379.006 253.858 388.139 269.653 393.648 285.625C399.605 302.895 404.399 326.686 402.875 350.614C401.104 378.421 388.497 411.449 362.007 439.486C343.58 458.986 313.198 480.025 277.111 485.346C262.826 487.453 196.603 495.676 131.777 462.441C40.0742 415.423 19.4871 348.873 19.4871 348.873C19.4871 348.873 39.5099 384.293 57.0541 400.116C79.9833 420.798 104.415 438.611 125.807 445.266C171.022 459.334 199.852 459.254 221.138 458.063C238.406 457.098 273.538 450.168 295.452 435.22C331.554 410.596 344.65 392.734 354.148 362.037L354.157 362.036Z" fill="#81E650" stroke="black" stroke-opacity="0.22344" stroke-width="0.504983"/>
<path opacity="0.61121" d="M354.157 362.036C360.813 340.524 363.905 309.353 356.389 286.112C350.901 299.557 338.375 315.09 322.302 325.96C317.014 336.082 315.276 348.577 290.298 375.922C280.934 386.173 262.511 397.237 233.318 408.884C208.399 418.826 155.146 426.318 102.751 400.299C79.396 388.701 52.9552 366.575 33.5436 335.306C25.8152 322.857 19.201 308.96 14.3386 293.701C-7.21752 226.048 10.7158 175.41 10.7158 175.41C10.7158 175.41 0.707244 205.129 1.00658 235.98C1.44588 281.252 17.81 326.557 34.2298 351.381C69.416 404.574 102.73 420.391 123.563 433.117C151.276 450.048 200.015 459.015 221.146 458.063C238.423 457.285 273.546 450.168 295.459 435.22C331.562 410.596 344.659 392.733 354.157 362.036Z" fill="#FFD200" stroke="black" stroke-opacity="0.22344" stroke-width="0.504983"/>
<path opacity="0.61121" d="M207.133 362.829C225.882 361.869 264.862 352.767 275.482 341.418C299.902 339.471 314.283 330.857 322.273 325.936C316.985 336.057 315.247 348.553 290.269 375.897C280.905 386.149 262.482 397.213 233.289 408.86C199.714 422.255 137.981 411.791 99.5732 385.426C78.5541 370.997 22.7278 323.321 22.4557 226.523C22.2139 140.615 62.2579 88.6687 70.108 78.1389C122.182 8.3008 189.197 3.07373 189.197 3.07373C189.197 3.07373 146.273 7.89035 93.7829 60.3827C78.5015 75.6641 47.8163 122.991 45.027 157.838C42.2395 192.687 40.2588 228.186 70.3786 283.896C77.1795 296.476 89.1386 318.273 111.315 332.838C163.087 366.838 186.365 363.889 207.137 362.825L207.133 362.829Z" fill="#FF8E00" stroke="black" stroke-opacity="0.22344" stroke-width="0.504983"/>
<path opacity="0.61121" d="M214.239 325.601C192.174 321.114 148.267 308.707 118.768 257.611C107.802 238.617 101.972 218.051 100.12 198.038C100.12 198.038 86.0288 115.127 137.754 63.4C197.002 4.15212 273.284 11.3294 289.339 11.3294C394.679 11.3294 467.93 80.0791 467.93 80.0791C467.93 80.0791 396.088 1 286.849 1C212.494 1 192.304 11.2459 156.156 31.754C102.597 62.1403 69.0043 122.107 61.9025 148.621C54.8008 175.134 46.8551 243.143 70.391 283.909C77.5411 296.293 89.151 318.286 111.327 332.85C163.099 366.85 186.377 363.901 207.149 362.838C225.898 361.878 264.878 352.775 275.498 341.427C265.023 341.642 240.704 342.516 214.244 325.606L214.239 325.601Z" fill="#FF5400" stroke="black" stroke-opacity="0.22344" stroke-width="0.504983"/>
<path d="M363.757 251.371C363.757 263.493 361.243 275.058 356.684 285.621C349.615 302.001 337.626 315.973 322.462 325.881C305.977 336.653 289.434 340.248 278.038 341.32C264.825 342.563 239.052 342.132 213.982 325.471C195.325 313.071 181.566 294.483 176.013 272.845C169.138 246.058 174.846 211.673 202.284 186.441C211.61 177.865 222.778 171.083 235.17 166.681C266.566 155.531 305.745 160.288 334.054 185.777C347.423 197.814 357.115 213.496 361.365 231.146C362.931 237.649 363.757 244.417 363.757 251.371Z" stroke="black" stroke-width="0.504983"/>
</svg>
