<?xml version="1.0" encoding="UTF-8" standalone="no"?>
<!-- Created with Inkscape (http://www.inkscape.org/) -->

<svg
   width="210mm"
   height="297mm"
   viewBox="0 0 210 297"
   version="1.1"
   id="svg1"
   xml:space="preserve"
   inkscape:version="1.3 (0e150ed6c4, 2023-07-21)"
   sodipodi:docname="icon-inkscape.svg"
   xmlns:inkscape="http://www.inkscape.org/namespaces/inkscape"
   xmlns:sodipodi="http://sodipodi.sourceforge.net/DTD/sodipodi-0.dtd"
   xmlns="http://www.w3.org/2000/svg"
   xmlns:svg="http://www.w3.org/2000/svg"><sodipodi:namedview
     id="namedview1"
     pagecolor="#ffffff"
     bordercolor="#000000"
     borderopacity="0.25"
     inkscape:showpageshadow="2"
     inkscape:pageopacity="0.0"
     inkscape:pagecheckerboard="0"
     inkscape:deskcolor="#d1d1d1"
     inkscape:document-units="mm"
     inkscape:zoom="1.5714646"
     inkscape:cx="494.44319"
     inkscape:cy="351.26466"
     inkscape:window-width="3840"
     inkscape:window-height="2036"
     inkscape:window-x="-12"
     inkscape:window-y="-12"
     inkscape:window-maximized="1"
     inkscape:current-layer="layer4" /><defs
     id="defs1" /><g
     inkscape:groupmode="layer"
     id="layer4"
     inkscape:label="Paths"><path
       id="path10315"
       style="opacity:0.611208;fill:#ff46fb;stroke:#000000;stroke-width:0.13361;stroke-opacity:0.223443;fill-opacity:1"
       d="m 119.97011,54.047673 c -27.709209,1.111088 -39.425327,17.034958 -44.651659,27.111623 -2.415849,4.657894 -3.596103,11.192177 -2.958508,18.082372 0.489984,5.295032 2.053542,10.800262 4.95493,15.825612 7.805315,13.5192 19.358883,16.82298 25.196887,18.01018 -4.93653,-3.28091 -8.576846,-8.19911 -10.046363,-13.92438 -4.140681,-4.73609 -6.648399,-12.67321 -6.889181,-17.1469 -0.673371,-12.51114 4.916414,-19.957308 8.07617,-23.741005 3.941788,-4.720153 9.342464,-9.167704 19.085834,-12.339453 4.22315,-1.374759 9.26216,-2.509833 15.35185,-3.323534 4.71783,-0.630393 22.41062,0.549217 36.98947,10.515486 12.27195,8.389243 19.35438,22.956946 19.35438,22.956946 0,0 -6.67502,-18.234097 -26.20237,-30.542952 C 141.03827,54.694074 128.46509,53.70704 119.97011,54.047673 Z"
       sodipodi:nodetypes="ssssccssssscss"
       inkscape:label="9" /><path
       id="path10316"
       style="opacity:0.611208;fill:#ca41fc;stroke:#000000;stroke-width:0.13361;stroke-opacity:0.223443;fill-opacity:1"
       d="m 132.05047,74.84104 c -13.81891,0.311343 -20.5261,5.880626 -26.59426,11.158817 -1.69636,1.47552 -4.78128,5.720586 -6.522256,10.79444 -7.297903,7.726793 -7.918258,15.323733 -6.468557,22.358783 -4.140681,-4.73609 -6.648399,-12.67321 -6.889181,-17.1469 -0.673371,-12.51114 4.916414,-19.957308 8.07617,-23.741005 3.941788,-4.720153 9.296904,-9.311243 19.085834,-12.339453 9.80333,-3.032665 19.44838,-1.373353 24.3595,-0.461289 4.67975,0.869094 20.09215,3.257252 33.28539,19.481047 15.37751,18.90979 11.77785,39.75159 11.77785,39.75159 0,0 1.29087,-16.07901 -12.43834,-32.352902 -14.004,-16.599624 -29.1725,-17.694627 -37.67215,-17.503128 z"
       sodipodi:nodetypes="ssccssssscss"
       inkscape:label="8" /><path
       id="path10317"
       style="opacity:0.611208;fill:#8b48fe;stroke:#000000;stroke-width:0.13361;stroke-opacity:0.223443;fill-opacity:1"
       d="m 132.05047,74.84104 c -13.81891,0.311343 -20.5261,5.880626 -26.59426,11.158817 -1.69636,1.47552 -4.78128,5.720586 -6.522256,10.79444 2.356006,-2.160959 4.988196,-4.136877 9.425106,-5.856942 7.88214,-3.998152 14.65815,-5.368165 24.43971,-4.415344 14.36866,1.399651 22.73133,9.044711 27.33584,13.408468 4.59119,4.351131 13.53671,15.236201 12.40143,33.898271 -0.34515,5.67365 -2.1603,13.87237 -10.9629,27.01346 -8.12659,12.1319 -30.42669,21.65543 -30.42669,21.65543 0,0 24.84255,-5.16329 41.3415,-33.93709 11.78944,-20.56052 7.65503,-43.86463 -2.76533,-56.216382 -14.00401,-16.59962 -29.1725,-17.694627 -37.67215,-17.503128 z"
       sodipodi:nodetypes="ssccsssscsss"
       inkscape:label="7" /><path
       id="path10318"
       style="opacity:0.611208;fill:#00c0ff;stroke:#000000;stroke-width:0.13361;stroke-opacity:0.223443;fill-opacity:1"
       d="m 147.17029,103.13117 c -3.3879,-2.53669 -6.7219,-5.009596 -13.32384,-7.319066 -9.847,-8.381514 -20.50418,-6.384015 -25.48739,-4.874749 7.88214,-3.998152 14.65815,-5.368165 24.43971,-4.415344 14.36866,1.399651 22.73133,9.044711 27.33584,13.408468 4.59119,4.351131 13.53671,15.236201 12.40143,33.898271 -0.34515,5.67365 -2.1603,13.87237 -10.9629,27.01346 -2.6853,4.00879 -6.91816,7.73279 -11.38265,10.92249 0,0 6.10727,-5.34629 10.80878,-18.20389 2.14264,-5.85967 4.91401,-14.0668 0.92533,-29.72694 -1.33967,-5.25976 -7.94879,-15.60705 -14.75431,-20.7027 z"
       sodipodi:nodetypes="sccsssscsss"
       inkscape:label="6" /><path
       id="path10319"
       style="opacity:0.611208;fill:#00d267;stroke:#000000;stroke-width:0.13361;stroke-opacity:0.223443;fill-opacity:1"
       d="m 147.17029,103.13117 c -3.3879,-2.53669 -6.7219,-5.009596 -13.32384,-7.319066 2.92151,2.630953 6.01503,6.235676 7.46072,11.852296 4.86309,6.4599 7.27939,10.63944 8.73695,14.86476 1.57631,4.56953 2.84452,10.86404 2.44129,17.19502 -0.46859,7.35724 -1.66558,15.91056 -6.88377,22.82901 -3.42279,4.53805 -6.18723,8.43442 -14.66378,12.84844 -3.3885,1.76451 -13.5833,6.28211 -28.00558,4.47572 -11.979104,-1.50038 -22.417964,-7.51738 -22.417964,-7.51738 0,0 13.576934,9.15971 30.176634,9.26218 10.23946,0.0632 14.4705,-1.67075 20.03382,-3.71949 16.4433,-6.05538 23.12694,-14.68347 26.30002,-20.91034 2.54584,-4.99597 8.88849,-17.49831 4.89981,-33.15845 -1.33967,-5.25976 -7.94879,-15.60705 -14.75431,-20.7027 z"
       sodipodi:nodetypes="sccssssscsssss"
       inkscape:label="5" /><path
       id="path10320"
       style="opacity:0.611208;fill:#81e650;stroke:#000000;stroke-width:0.13361;stroke-opacity:0.223443;fill-opacity:1"
       d="m 139.5955,142.74629 c 1.76117,-5.69162 2.57917,-13.93863 0.59056,-20.08758 3.02993,-7.06023 1.66957,-13.40818 1.12111,-14.99431 4.86309,6.4599 7.27939,10.63944 8.73695,14.86476 1.57631,4.56953 2.84452,10.86404 2.44129,17.19502 -0.46859,7.35724 -3.80396,16.09647 -10.81254,23.51357 -4.8753,5.15946 -12.91377,10.7262 -22.4618,12.13412 -3.77953,0.55731 -21.301263,2.73306 -38.45254,-6.06054 -24.26256,-12.4396 -29.710003,-30.04829 -29.710003,-30.04829 0,0 5.297728,9.3715 9.939621,13.55833 6.066737,5.47199 12.530582,10.18501 18.191479,11.94629 11.962741,3.72198 19.59077,3.70098 25.223433,3.38594 4.56859,-0.25552 13.86352,-2.08886 19.66247,-6.04397 9.55216,-6.51495 13.0168,-11.24148 15.52997,-19.36334 z"
       sodipodi:nodetypes="sccssssscsssss"
       inkscape:label="4" /><path
       id="path10321"
       style="opacity:0.611208;fill:#ffd200;stroke:#000000;stroke-width:0.13361;stroke-opacity:0.223443;fill-opacity:1"
       d="m 139.5955,142.74629 c 1.76117,-5.69162 2.57917,-13.93863 0.59056,-20.08758 -1.45202,3.55721 -4.76633,7.66711 -9.01888,10.54271 -1.39907,2.67795 -1.85885,5.98408 -8.46758,13.21938 -2.47756,2.71245 -7.35195,5.63966 -15.07609,8.7213 -6.59314,2.63041 -20.683304,4.61279 -34.545746,-2.27138 -6.179229,-3.06864 -13.174821,-8.92282 -18.310926,-17.1961 -2.044785,-3.29375 -3.794843,-6.97093 -5.081322,-11.00842 C 43.98208,106.76654 48.72698,93.367841 48.72698,93.367841 c 0,0 -2.648066,7.863349 -2.568858,16.025859 0.116229,11.97752 4.445932,23.96545 8.790339,30.53306 9.309743,14.0739 18.124267,18.2593 23.635898,21.62645 7.332639,4.47963 20.22813,6.85229 25.818701,6.60039 4.57109,-0.20597 13.86352,-2.08886 19.66247,-6.04397 9.55216,-6.51495 13.0168,-11.24148 15.52997,-19.36334 z"
       sodipodi:nodetypes="sccssssscssssss"
       inkscape:label="3" /><path
       id="path10322"
       style="opacity:0.611208;fill:#ff8e00;stroke:#000000;stroke-width:0.13361;stroke-opacity:0.223443;fill-opacity:1"
       d="m 100.70373,142.96273 c 4.9606,-0.25396 15.27376,-2.66237 18.08361,-5.66496 6.46125,-0.51517 10.266,-2.79434 12.37984,-4.09635 -1.39907,2.67795 -1.85885,5.98408 -8.46758,13.21938 -2.47756,2.71245 -7.35195,5.63966 -15.07609,8.7213 -8.883525,3.54419 -25.217355,0.77562 -35.379122,-6.20015 C 66.683061,145.12425 51.912496,132.50994 51.840429,106.89912 51.776469,84.169592 62.371389,70.424808 64.448174,67.639481 78.22571,49.161425 95.957665,47.778118 95.957665,47.778118 c 0,0 -11.356875,1.274448 -25.245422,15.162995 -4.04321,4.04321 -12.162223,16.565054 -12.899762,25.785488 -0.73754,9.220433 -1.261625,18.612839 6.707592,33.353219 1.799391,3.32827 4.963618,9.09559 10.830831,12.94871 13.698206,8.99589 19.857302,8.21556 25.352826,7.9342 z"
       sodipodi:nodetypes="sccssssscszsss"
       inkscape:label="2" /><path
       id="path10323"
       style="opacity:0.611208;fill:#ff5400;stroke:#000000;stroke-width:0.13361;stroke-opacity:0.223443;fill-opacity:1"
       d="m 102.58044,133.11199 c -5.838014,-1.1872 -17.454721,-4.46994 -25.260031,-17.98914 -2.90139,-5.02535 -4.443904,-10.46744 -4.933884,-15.762472 0,0 -3.728252,-21.937293 9.957281,-35.622826 C 98.019982,48.061376 118.20254,49.96091 122.45073,49.96091 c 27.87087,0 47.25183,18.189657 47.25183,18.189657 0,0 -19.0076,-20.922965 -47.911,-20.922965 -19.67283,0 -25.015015,2.710929 -34.579317,8.13698 -14.171354,8.039739 -23.058548,23.906381 -24.938027,30.920692 -1.879479,7.014311 -3.981346,25.008716 2.245857,35.794546 1.891771,3.27664 4.963618,9.09559 10.830831,12.94871 13.698206,8.99589 19.857302,8.21556 25.352826,7.9342 4.9606,-0.25396 15.27376,-2.66237 18.08361,-5.66496 -2.77156,0.0569 -9.20611,0.28822 -16.2069,-4.18578 z"
       sodipodi:nodetypes="cscsscsssssscc"
       inkscape:label="1" /><path
       id="path10314"
       style="display:inline;opacity:1;fill:none;stroke:#000000;stroke-width:0.13361;stroke-opacity:1"
       d="m 142.1401,113.47134 c 0,3.20727 -0.66503,6.26709 -1.87134,9.06197 -1.87054,4.33385 -5.04255,8.03068 -9.0546,10.65245 -4.36169,2.85025 -8.73874,3.80136 -11.75428,4.08503 -3.49576,0.32884 -10.31525,0.21499 -16.94812,-4.19333 -4.93653,-3.28091 -8.576846,-8.19911 -10.046363,-13.92438 -1.819134,-7.0874 -0.30879,-16.1853 6.950811,-22.861474 2.467512,-2.269203 5.422392,-4.063643 8.701202,-5.228159 8.30671,-2.950242 18.67349,-1.691634 26.16345,5.052356 3.53719,3.184902 6.10156,7.333907 7.22605,12.003657 0.41434,1.72065 0.63319,3.512 0.63319,5.35188"
       sodipodi:nodetypes="csssssssssc"
       inkscape:label="Circle" /></g></svg>
