<?xml version="1.0" encoding="UTF-8"?>
<svg width="138.41mm" height="135.4mm" version="1.1" viewBox="0 0 138.41 135.4" xml:space="preserve" xmlns="http://www.w3.org/2000/svg"><g transform="translate(-46.09 -47.161)" stroke="#000" stroke-width=".13361"><g stroke-opacity=".22344"><path d="m119.97 54.048c-27.709 1.1111-39.425 17.035-44.652 27.112-2.4158 4.6579-3.5961 11.192-2.9585 18.082 0.48998 5.295 2.0535 10.8 4.9549 15.826 7.8053 13.519 19.359 16.823 25.197 18.01-4.9365-3.2809-8.5768-8.1991-10.046-13.924-4.1407-4.7361-6.6484-12.673-6.8892-17.147-0.67337-12.511 4.9164-19.957 8.0762-23.741 3.9418-4.7202 9.3425-9.1677 19.086-12.339 4.2232-1.3748 9.2622-2.5098 15.352-3.3235 4.7178-0.63039 22.411 0.54922 36.989 10.515 12.272 8.3892 19.354 22.957 19.354 22.957s-6.675-18.234-26.202-30.543c-17.193-10.838-29.766-11.825-38.261-11.484z" fill="#ff46fb" opacity=".61121"/><path d="m132.05 74.841c-13.819 0.31134-20.526 5.8806-26.594 11.159-1.6964 1.4755-4.7813 5.7206-6.5223 10.794-7.2979 7.7268-7.9183 15.324-6.4686 22.359-4.1407-4.7361-6.6484-12.673-6.8892-17.147-0.67337-12.511 4.9164-19.957 8.0762-23.741 3.9418-4.7202 9.2969-9.3112 19.086-12.339 9.8033-3.0327 19.448-1.3734 24.36-0.46129 4.6798 0.86909 20.092 3.2573 33.285 19.481 15.378 18.91 11.778 39.752 11.778 39.752s1.2909-16.079-12.438-32.353c-14.004-16.6-29.172-17.695-37.672-17.503z" fill="#ca41fc" opacity=".61121"/><path d="m132.05 74.841c-13.819 0.31134-20.526 5.8806-26.594 11.159-1.6964 1.4755-4.7813 5.7206-6.5223 10.794 2.356-2.161 4.9882-4.1369 9.4251-5.8569 7.8821-3.9982 14.658-5.3682 24.44-4.4153 14.369 1.3997 22.731 9.0447 27.336 13.408 4.5912 4.3511 13.537 15.236 12.401 33.898-0.34515 5.6736-2.1603 13.872-10.963 27.013-8.1266 12.132-30.427 21.655-30.427 21.655s24.843-5.1633 41.342-33.937c11.789-20.561 7.655-43.865-2.7653-56.216-14.004-16.6-29.172-17.695-37.672-17.503z" fill="#8b48fe" opacity=".61121"/><path d="m147.17 103.13c-3.3879-2.5367-6.7219-5.0096-13.324-7.3191-9.847-8.3815-20.504-6.384-25.487-4.8747 7.8821-3.9982 14.658-5.3682 24.44-4.4153 14.369 1.3997 22.731 9.0447 27.336 13.408 4.5912 4.3511 13.537 15.236 12.401 33.898-0.34515 5.6736-2.1603 13.872-10.963 27.013-2.6853 4.0088-6.9182 7.7328-11.383 10.922 0 0 6.1073-5.3463 10.809-18.204 2.1426-5.8597 4.914-14.067 0.92533-29.727-1.3397-5.2598-7.9488-15.607-14.754-20.703z" fill="#00c0ff" opacity=".61121"/><path d="m147.17 103.13c-3.3879-2.5367-6.7219-5.0096-13.324-7.3191 2.9215 2.631 6.015 6.2357 7.4607 11.852 4.8631 6.4599 7.2794 10.639 8.737 14.865 1.5763 4.5695 2.8445 10.864 2.4413 17.195-0.46859 7.3572-1.6656 15.911-6.8838 22.829-3.4228 4.538-6.1872 8.4344-14.664 12.848-3.3885 1.7645-13.583 6.2821-28.006 4.4757-11.979-1.5004-22.418-7.5174-22.418-7.5174s13.577 9.1597 30.177 9.2622c10.239 0.0632 14.47-1.6708 20.034-3.7195 16.443-6.0554 23.127-14.683 26.3-20.91 2.5458-4.996 8.8885-17.498 4.8998-33.158-1.3397-5.2598-7.9488-15.607-14.754-20.703z" fill="#00d267" opacity=".61121"/><path d="m139.6 142.75c1.7612-5.6916 2.5792-13.939 0.59056-20.088 3.0299-7.0602 1.6696-13.408 1.1211-14.994 4.8631 6.4599 7.2794 10.639 8.737 14.865 1.5763 4.5695 2.8445 10.864 2.4413 17.195-0.46859 7.3572-3.804 16.096-10.813 23.514-4.8753 5.1595-12.914 10.726-22.462 12.134-3.7795 0.55731-21.301 2.7331-38.453-6.0605-24.263-12.44-29.71-30.048-29.71-30.048s5.2977 9.3715 9.9396 13.558c6.0667 5.472 12.531 10.185 18.191 11.946 11.963 3.722 19.591 3.701 25.223 3.3859 4.5686-0.25552 13.864-2.0889 19.662-6.044 9.5522-6.515 13.017-11.241 15.53-19.363z" fill="#81e650" opacity=".61121"/><path d="m139.6 142.75c1.7612-5.6916 2.5792-13.939 0.59056-20.088-1.452 3.5572-4.7663 7.6671-9.0189 10.543-1.3991 2.678-1.8588 5.9841-8.4676 13.219-2.4776 2.7124-7.352 5.6397-15.076 8.7213-6.5931 2.6304-20.683 4.6128-34.546-2.2714-6.1792-3.0686-13.175-8.9228-18.311-17.196-2.0448-3.2938-3.7948-6.9709-5.0813-11.008-5.7034-17.9-0.95854-31.298-0.95854-31.298s-2.6481 7.8633-2.5689 16.026c0.11623 11.978 4.4459 23.965 8.7903 30.533 9.3097 14.074 18.124 18.259 23.636 21.626 7.3326 4.4796 20.228 6.8523 25.819 6.6004 4.5711-0.20597 13.864-2.0889 19.662-6.044 9.5522-6.515 13.017-11.241 15.53-19.363z" fill="#ffd200" opacity=".61121"/><path d="m100.7 142.96c4.9606-0.25396 15.274-2.6624 18.084-5.665 6.4612-0.51517 10.266-2.7943 12.38-4.0964-1.3991 2.678-1.8588 5.9841-8.4676 13.219-2.4776 2.7124-7.352 5.6397-15.076 8.7213-8.8835 3.5442-25.217 0.77562-35.379-6.2002-5.5613-3.8177-20.332-16.432-20.404-42.043-0.06396-22.73 10.531-36.474 12.608-39.26 13.778-18.478 31.509-19.861 31.509-19.861s-11.357 1.2744-25.245 15.163c-4.0432 4.0432-12.162 16.565-12.9 25.785-0.73754 9.2204-1.2616 18.613 6.7076 33.353 1.7994 3.3283 4.9636 9.0956 10.831 12.949 13.698 8.9959 19.857 8.2156 25.353 7.9342z" fill="#ff8e00" opacity=".61121"/><path d="m102.58 133.11c-5.838-1.1872-17.455-4.4699-25.26-17.989-2.9014-5.0254-4.4439-10.467-4.9339-15.762 0 0-3.7283-21.937 9.9573-35.623 15.676-15.676 35.859-13.777 40.107-13.777 27.871 0 47.252 18.19 47.252 18.19s-19.008-20.923-47.911-20.923c-19.673 0-25.015 2.7109-34.579 8.137-14.171 8.0397-23.059 23.906-24.938 30.921s-3.9813 25.009 2.2459 35.795c1.8918 3.2766 4.9636 9.0956 10.831 12.949 13.698 8.9959 19.857 8.2156 25.353 7.9342 4.9606-0.25396 15.274-2.6624 18.084-5.665-2.7716 0.0569-9.2061 0.28822-16.207-4.1858z" fill="#ff5400" opacity=".61121"/></g><path d="m142.14 113.47c0 3.2073-0.66503 6.2671-1.8713 9.062-1.8705 4.3338-5.0426 8.0307-9.0546 10.652-4.3617 2.8502-8.7387 3.8014-11.754 4.085-3.4958 0.32884-10.315 0.21499-16.948-4.1933-4.9365-3.2809-8.5768-8.1991-10.046-13.924-1.8191-7.0874-0.30879-16.185 6.9508-22.861 2.4675-2.2692 5.4224-4.0636 8.7012-5.2282 8.3067-2.9502 18.673-1.6916 26.163 5.0524 3.5372 3.1849 6.1016 7.3339 7.226 12.004 0.41434 1.7206 0.63319 3.512 0.63319 5.3519" fill="none"/></g></svg>
